<svg xmlns="http://www.w3.org/2000/svg" xmlns:xlink="http://www.w3.org/1999/xlink" xmlns:lucid="lucid" width="1332.22" height="2600"><g transform="translate(-260 2460)" lucid:page-tab-id="0_0"><path d="M0-2517.67h1870.87v3840.5H0z" fill="#fff"/><path d="M872.22-2434c0-3.3 2.7-6 6-6h688c3.32 0 6 2.7 6 6V-26c0 3.3-2.68 6-6 6h-688c-3.3 0-6-2.7-6-6z" stroke="#5e5e5e" stroke-width="3" fill-opacity="0"/><path d="M1092.22 60h240v60h-240z" fill="none"/><use xlink:href="#a" transform="matrix(1,0,0,1,1092.2222222222222,60) translate(26.10493827160495 36.22222222222222)"/><path d="M1392.22-2300c0 33.14-76.1 60-170 60s-170-26.86-170-60 76.1-60 170-60 170 26.86 170 60z" stroke="#5e5e5e" stroke-width="3" fill="#fff"/><use xlink:href="#b" transform="matrix(1,0,0,1,1052.2222222222222,-2360) translate(122.27722222222224 66.5111111111111)"/><use xlink:href="#c" transform="matrix(1,0,0,1,1052.2222222222222,-2360) translate(183.44944444444445 66.5111111111111)"/><path d="M1392.22-2120c0 33.14-76.1 60-170 60s-170-26.86-170-60 76.1-60 170-60 170 26.86 170 60z" stroke="#5e5e5e" stroke-width="3" fill="#fff"/><use xlink:href="#d" transform="matrix(1,0,0,1,1052.2222222222222,-2180) translate(132.65932098765433 66.5111111111111)"/><use xlink:href="#e" transform="matrix(1,0,0,1,1052.2222222222222,-2180) translate(184.94327160493827 66.5111111111111)"/><path d="M1392.22-1940c0 33.14-76.1 60-170 60s-170-26.86-170-60 76.1-60 170-60 170 26.86 170 60z" stroke="#5e5e5e" stroke-width="3" fill="#fff"/><use xlink:href="#f" transform="matrix(1,0,0,1,1052.2222222222222,-2000) translate(128.92475308641974 66.5111111111111)"/><path d="M1392.22-1740c0 33.14-76.1 60-170 60s-170-26.86-170-60 76.1-60 170-60 170 26.86 170 60z" stroke="#5e5e5e" stroke-width="3" fill="#fff"/><use xlink:href="#g" transform="matrix(1,0,0,1,1052.2222222222222,-1800) translate(57.37043209876545 66.5111111111111)"/><use xlink:href="#h" transform="matrix(1,0,0,1,1052.2222222222222,-1800) translate(164.7766049382716 66.5111111111111)"/><path d="M1392.22-1560c0 33.14-76.1 60-170 60s-170-26.86-170-60 76.1-60 170-60 170 26.86 170 60z" stroke="#5e5e5e" stroke-width="3" fill="#fff"/><use xlink:href="#i" transform="matrix(1,0,0,1,1052.2222222222222,-1620) translate(67.45376543209879 66.5111111111111)"/><use xlink:href="#j" transform="matrix(1,0,0,1,1052.2222222222222,-1620) translate(132.50993827160494 66.5111111111111)"/><use xlink:href="#k" transform="matrix(1,0,0,1,1052.2222222222222,-1620) translate(196.59512345679013 66.5111111111111)"/><path d="M1392.22-1380c0 33.14-76.1 60-170 60s-170-26.86-170-60 76.1-60 170-60 170 26.86 170 60z" stroke="#5e5e5e" stroke-width="3" fill="#fff"/><use xlink:href="#i" transform="matrix(1,0,0,1,1052.2222222222222,-1440) translate(71.82320987654323 66.5111111111111)"/><use xlink:href="#l" transform="matrix(1,0,0,1,1052.2222222222222,-1440) translate(136.8793827160494 66.5111111111111)"/><path d="M386.67-1544.44c0 19.63-15.92 35.55-35.56 35.55-19.63 0-35.54-15.9-35.54-35.54s15.9-35.56 35.55-35.56 35.57 15.92 35.57 35.56z" stroke="#5e5e5e" stroke-width="3" fill="#fff"/><path d="M351.1-1508.9v101.7c0 3.3 1.4 8.3 3.1 11.15L422.2-1282m-71.1-119.2L280-1282m0-191.33h142.22" stroke="#5e5e5e" stroke-width="3" fill="none"/><path d="M280-1574c0-3.3 2.7-6 6-6h130.22c3.32 0 6 2.7 6 6v308c0 3.3-2.68 6-6 6H286c-3.3 0-6-2.7-6-6z" fill="none"/><use xlink:href="#m" transform="matrix(1,0,0,1,200,-1282) translate(128.10493827160494 17.77777777777778)"/><path d="M1382.22-680c0 33.14-76.1 60-170 60s-170-26.86-170-60 76.1-60 170-60 170 26.86 170 60z" stroke="#5e5e5e" stroke-width="3" fill="#fff"/><use xlink:href="#i" transform="matrix(1,0,0,1,1042.2222222222222,-740) translate(46.46549382716053 66.5111111111111)"/><use xlink:href="#n" transform="matrix(1,0,0,1,1042.2222222222222,-740) translate(111.52166666666669 66.5111111111111)"/><use xlink:href="#o" transform="matrix(1,0,0,1,1042.2222222222222,-740) translate(195.17598765432098 66.5111111111111)"/><path d="M1382.22-1040c0 33.14-76.1 60-170 60s-170-26.86-170-60 76.1-60 170-60 170 26.86 170 60z" stroke="#5e5e5e" stroke-width="3" fill="#fff"/><use xlink:href="#p" transform="matrix(1,0,0,1,1042.2222222222222,-1100) translate(76.71549382716051 66.5111111111111)"/><use xlink:href="#q" transform="matrix(1,0,0,1,1042.2222222222222,-1100) translate(169.25808641975308 66.5111111111111)"/><path d="M1382.22-860c0 33.14-76.1 60-170 60s-170-26.86-170-60 76.1-60 170-60 170 26.86 170 60z" stroke="#5e5e5e" stroke-width="3" fill="#fff"/><use xlink:href="#r" transform="matrix(1,0,0,1,1042.2222222222222,-920) translate(49.266419753086446 47.761111111111106)"/><use xlink:href="#s" transform="matrix(1,0,0,1,1042.2222222222222,-920) translate(122.38925925925926 47.761111111111106)"/><use xlink:href="#t" transform="matrix(1,0,0,1,1042.2222222222222,-920) translate(228.2269135802469 47.761111111111106)"/><use xlink:href="#u" transform="matrix(1,0,0,1,1042.2222222222222,-920) translate(78.99358024691358 80.02777777777777)"/><use xlink:href="#v" transform="matrix(1,0,0,1,1042.2222222222222,-920) translate(171.53617283950615 80.02777777777777)"/><path d="M1392.22-500c0 33.14-80.6 60-180 60s-180-26.86-180-60 80.6-60 180-60 180 26.86 180 60z" stroke="#5e5e5e" stroke-width="3" fill="#fff"/><use xlink:href="#p" transform="matrix(1,0,0,1,1032.2222222222222,-560) translate(43.58123456790126 66.5111111111111)"/><use xlink:href="#w" transform="matrix(1,0,0,1,1032.2222222222222,-560) translate(136.12382716049382 66.5111111111111)"/><use xlink:href="#o" transform="matrix(1,0,0,1,1032.2222222222222,-560) translate(218.06024691358024 66.5111111111111)"/><path d="M1041.12-860h-.4" stroke="#5e5e5e" stroke-width="2" fill="none"/><path d="M1040.74-860.97l-.02.96v.5l.03.5h-1.05v-2h1.04" fill="#5e5e5e"/><path d="M1040.74-860.97l-.02.96v.5l.03.5h-.65v-2h.64" fill="#5e5e5e"/><path d="M1382.22-1220c0 33.14-76.1 60-170 60s-170-26.86-170-60 76.1-60 170-60 170 26.86 170 60z" stroke="#5e5e5e" stroke-width="3" fill="#fff"/><use xlink:href="#x" transform="matrix(1,0,0,1,1042.2222222222222,-1280) translate(105.17290123456793 66.5111111111111)"/><use xlink:href="#k" transform="matrix(1,0,0,1,1042.2222222222222,-1280) translate(158.875987654321 66.5111111111111)"/><path d="M1392.22-140c0 33.14-80.6 60-180 60s-180-26.86-180-60 80.6-60 180-60 180 26.86 180 60z" stroke="#5e5e5e" stroke-width="3" fill="#fff"/><use xlink:href="#y" transform="matrix(1,0,0,1,1032.2222222222222,-200) translate(69.61117283950618 66.5111111111111)"/><use xlink:href="#z" transform="matrix(1,0,0,1,1032.2222222222222,-200) translate(196.3624074074074 66.5111111111111)"/><path d="M1031.12-140h-.4" stroke="#5e5e5e" stroke-width="2" fill="none"/><path d="M1030.74-140.92l-.02.9v.5l.03.52h-1.05v-2h1.05" fill="#5e5e5e"/><path d="M1030.74-140.92l-.02.9v.5l.03.52h-.65v-2h.65" fill="#5e5e5e"/><path d="M423.23-1471.85l6.38-.14 7.2-.44 7-.74 6.88-1 6.77-1.3 6.7-1.57 6.63-1.86 6.62-2.16 6.62-2.46 6.64-2.8 6.7-3.15 6.78-3.54 6.9-4 7.02-4.46 7.22-5.02 7.43-5.64 7.7-6.38 8.04-7.23 8.4-8.24 8.87-9.45 9.45-10.94 10.12-12.78 11-15.14 12.08-18.22 13.56-22.44 15.68-28.56 19-38.4 25.72-58.03 134.07-334.02 19-38.38 15.66-28.56 13.57-22.43 12.1-18.22 10.97-15.14 10.13-12.77 9.43-10.94 8.87-9.47 8.4-8.24 8.03-7.23 7.7-6.38 7.44-5.66 7.2-5 7.05-4.48 6.9-3.98 6.77-3.55 6.68-3.15 6.65-2.8 6.62-2.45 6.6-2.16 6.65-1.85 6.7-1.57 6.77-1.3 6.87-1 7-.74 7.2-.45 5.56-.1" stroke="#5e5e5e" stroke-width="2" fill="none"/><path d="M423.28-1470.85l-4.03.08-.02-1.06h3v-1l1-.02" fill="#5e5e5e"/><path d="M1032-2289l16.76-10.9-17.64-9.44M423.23-1471.85l8.4-.18 9.05-.57 8.77-.92 8.54-1.26 8.34-1.6 8.2-1.92 8.08-2.25 8-2.6 7.96-2.96 7.94-3.35 7.96-3.75 8.02-4.2 8.12-4.68 8.25-5.24 8.44-5.87 8.7-6.58 8.96-7.42 9.34-8.42 9.8-9.6 10.38-11.07 11.12-12.9 12.1-15.26 13.4-18.48 15.33-23.1 18.48-30.6 25.28-46.17 117.85-232.4 18.48-30.58 15.34-23.1 13.4-18.5 12.1-15.26 11.12-12.9 10.4-11.07 9.8-9.6 9.33-8.43 8.96-7.42 8.67-6.6 8.44-5.86 8.26-5.25 8.1-4.7 8.03-4.18 7.97-3.75 7.94-3.34 7.95-2.96 8-2.6 8.08-2.26 8.2-1.92 8.35-1.6 8.54-1.25 8.77-.94 9.05-.56 7.58-.16" stroke="#5e5e5e" stroke-width="2" fill="none"/><path d="M423.28-1470.85l-4.03.08-.02-1.06h3v-1l1-.02" fill="#5e5e5e"/><path d="M1031.93-2109.13l16.83-10.8-17.58-9.54M423.23-1471.85l11.9-.25 12.27-.77 11.72-1.23 11.27-1.67 10.87-2.07 10.58-2.48 10.3-2.88 10.13-3.3 9.98-3.7 9.9-4.16L542-1499l9.9-5.17 9.95-5.75 10.1-6.42 10.34-7.18 10.65-8.1 11.1-9.2 11.72-10.54 12.56-12.3 13.78-14.7 15.7-18.2 19.1-24.16 28.32-39.18 90.83-131.2 19.1-24.17 15.7-18.2 13.77-14.7 12.55-12.3 11.72-10.55 11.1-9.2 10.65-8.1 10.34-7.18 10.1-6.42 9.96-5.75 9.87-5.16 9.86-4.64 9.88-4.16 9.98-3.7 10.12-3.3 10.32-2.88 10.57-2.5 10.9-2.07 11.25-1.66 11.73-1.23 12.26-.77 11.1-.23" stroke="#5e5e5e" stroke-width="2" fill="none"/><path d="M423.28-1470.85l-4.03.08-.02-1.06h3v-1l1-.02" fill="#5e5e5e"/><path d="M1031.82-1929.3l16.94-10.65-17.48-9.72M423.23-1471.85l21.08-.44 20.22-1.26 18.7-1.96 17.46-2.57 16.44-3.12 15.63-3.67 15-4.17 14.5-4.72 14.2-5.27 14.06-5.9 14.1-6.64 14.34-7.5 14.92-8.63 16-10.17 18.06-12.57 22.72-17.3 114.38-93.6 18.06-12.56 16-10.17 14.93-8.62 14.35-7.5 14.1-6.63 14.04-5.9 14.2-5.3 14.5-4.7 15-4.2 15.63-3.66 16.44-3.14 17.45-2.58 18.7-1.96 20.22-1.26 20.26-.42" stroke="#5e5e5e" stroke-width="2" fill="none"/><path d="M423.28-1470.85l-4.03.08-.02-1.06h3v-1l1-.02" fill="#5e5e5e"/><path d="M1031.76-1729.43l17-10.53-17.42-9.82M423.23-1471.85l60.48-1.2 48.58-3.04 40.76-4.25 36.43-5.37 35.46-6.77 41.2-9.7 141.9-37.14 35.45-6.77 36.43-5.38 40.76-4.27 48.58-3.02 59.66-1.2" stroke="#5e5e5e" stroke-width="2" fill="none"/><path d="M423.28-1470.85l-4.03.08-.02-1.06h3v-1l1-.02" fill="#5e5e5e"/><path d="M1031.75-1549.44l17-10.52-17.4-9.84M423.23-1471.8l58.32 1.16 47.2 2.93 39.74 4.15 35.4 5.22 34.02 6.5 37.36 8.78L835.03-1400l34 6.5 35.42 5.22 39.73 4.15 47.22 2.94 57.5 1.16" stroke="#5e5e5e" stroke-width="2" fill="none"/><path d="M423.28-1472.8l-.04 2-4.03-.1.03-.93h3v-1" fill="#5e5e5e"/><path d="M1031.34-1370.2l17.42-9.84-17-10.52M423.23-1471.8l21.72.44 20.72 1.3 19.1 2 17.77 2.62 16.7 3.18 15.86 3.72 15.2 4.24 14.7 4.78 14.4 5.35 14.26 6 14.35 6.76 14.73 7.68 15.47 8.94 16.93 10.76 19.94 13.88 29.32 22.36 83.48 66.08 19.94 13.9 16.92 10.74 15.48 8.94 14.7 7.7 14.37 6.76 14.26 6 14.4 5.35 14.7 4.77 15.2 4.24 15.84 3.73 16.7 3.18 17.78 2.63 19.1 2 20.72 1.3 20.9.43" stroke="#5e5e5e" stroke-width="2" fill="none"/><path d="M423.28-1472.8l-.04 2-4.03-.1.03-.93h3v-1" fill="#5e5e5e"/><path d="M1021.34-1210.22l17.42-9.82-17-10.53M423.23-1471.8l12.52.25 12.8.8 12.22 1.28 11.7 1.73 11.26 2.15 10.92 2.57 10.64 2.97 10.4 3.38 10.25 3.8 10.15 4.28 10.1 4.75 10.12 5.3 10.2 5.9 10.36 6.57 10.6 7.38 11 8.33 11.47 9.5 12.2 11 13.23 12.97 14.82 15.8 17.55 20.37 23.8 30.14 103.64 139.5 17.55 20.37 14.82 15.8 13.23 12.97 12.2 11 11.48 9.5 10.97 8.33 10.6 7.38 10.38 6.58 10.2 5.9 10.12 5.28 10.1 4.77 10.14 4.26 10.24 3.8 10.42 3.4 10.63 2.97 10.9 2.56 11.28 2.15 11.7 1.73 12.2 1.3 12.8.8 11.72.23" stroke="#5e5e5e" stroke-width="2" fill="none"/><path d="M423.28-1472.8l-.04 2-4.03-.1.03-.93h3v-1" fill="#5e5e5e"/><path d="M1021.3-1030.3l17.46-9.75-16.96-10.6M423.23-1471.8l9.08.18 9.67.6 9.3.98 9 1.33 8.73 1.65 8.5 2 8.36 2.33 8.2 2.67 8.1 3 8.02 3.38 7.98 3.76 7.98 4.16 8 4.62 8.07 5.12 8.17 5.68 8.3 6.3 8.48 7.02 8.7 7.85 9 8.82 9.37 9.97 9.82 11.38 10.38 13.1 11.1 15.32 12.1 18.2 13.4 22.2 15.5 28.23 19.2 38.84 31.12 70.48 68.6 161.55 16.5 33.36 12.8 23.32 10.78 17.82 9.45 14.25 8.5 11.72 7.82 9.86 7.24 8.4 6.82 7.27 6.45 6.33 6.18 5.55 5.92 4.9 5.73 4.36 5.58 3.86 5.45 3.46 5.35 3.1 5.28 2.75 5.23 2.46 5.22 2.2 5.2 1.93 5.22 1.7 5.26 1.46 5.32 1.25 5.4 1.03 5.53.82 5.65.6 5.8.36 6.02.12 6.24-.13 6.5-.4 6.82-.73 7.18-1.06 7.6-1.45 8.1-1.9 8.66-2.42 9.36-3.04 8.9-3.3" stroke="#5e5e5e" stroke-width="2" fill="none"/><path d="M423.28-1472.8l-.04 2-4.03-.1.03-.93h3v-1" fill="#5e5e5e"/><path d="M1027.6-835.8l12.72-15.42-19.65-3.73M423.23-1471.8l4.9.1 5.8.35 5.67.6 5.6.83 5.53 1.05 5.5 1.3 5.47 1.52 5.48 1.78 5.5 2.05 5.55 2.34 5.62 2.64 5.7 2.98 5.82 3.37 5.97 3.8 6.13 4.26 6.34 4.82 6.6 5.45 6.88 6.2 7.22 7.07 7.62 8.12 8.1 9.4 8.7 10.97 9.37 12.92 10.24 15.44 11.33 18.75 12.76 23.26 14.7 29.7 17.64 39.7 22.76 57.74 37.54 108.94 99.95 305.82 22.75 57.74 17.63 39.7 14.7 29.7 12.77 23.26 11.34 18.75 10.25 15.45 9.4 12.93 8.67 10.97 8.1 9.4 7.63 8.12 7.22 7.07 6.87 6.2 6.6 5.45 6.33 4.8 6.14 4.27 5.97 3.8 5.82 3.35 5.7 3 5.6 2.63 5.56 2.34 5.5 2.03 5.5 1.78 5.46 1.54 5.5 1.3 5.53 1.05 5.6.82 5.67.6 5.78.36 4.1.08" stroke="#5e5e5e" stroke-width="2" fill="none"/><path d="M423.28-1472.8l-.04 2-4.03-.1.03-.93h3v-1" fill="#5e5e5e"/><path d="M1011-490.9l17.76-9.2-16.62-11.13M423.23-1471.8l3.33.06 4.26.27 4.2.44 4.2.62 4.15.78 4.16.98 4.17 1.16 4.2 1.36 4.23 1.58 4.3 1.8 4.38 2.07 4.48 2.34 4.6 2.65 4.7 3 4.9 3.4 5.07 3.85 5.3 4.4 5.57 5 5.86 5.75 6.22 6.63 6.63 7.7 7.13 9 7.72 10.63 8.4 12.68 9.3 15.34 10.33 18.84 11.7 23.6 13.46 30.32 15.92 40.34 19.62 56.6 26.28 87.6 48.38 191.75 100.6 418.43 26.28 87.6 19.62 56.6 15.92 40.33 13.47 30.33 11.7 23.6 10.33 18.83 9.27 15.34 8.42 12.7 7.7 10.62 7.14 9 6.65 7.7 6.2 6.63 5.88 5.74 5.56 5 5.3 4.4 5.07 3.85 4.9 3.4 4.7 3 4.6 2.65 4.47 2.34 4.37 2.06 4.3 1.8 4.25 1.58 4.2 1.37 4.16 1.16 4.17 1 4.16.78 4.18.62 4.22.44 4.26.27 2.52.06" stroke="#5e5e5e" stroke-width="2" fill="none"/><path d="M423.28-1472.8l-.04 2-4.03-.1.03-.93h3v-1" fill="#5e5e5e"/><path d="M1010.84-131.28l17.92-8.87-16.4-11.43M423.23-1471.8l6.47.12 7.26.46 7.1.74 6.93 1.03 6.83 1.3 6.74 1.6 6.7 1.86 6.66 2.17 6.66 2.48 6.67 2.8 6.73 3.17 6.8 3.57 6.92 3.98 7.06 4.48 7.24 5.03 7.45 5.65 7.72 6.4 8.02 7.24 8.43 8.24 8.88 9.47 9.46 10.97 10.14 12.82 11.03 15.2 12.17 18.33 13.7 22.67 15.94 29.06 19.63 39.66 27.9 63 117.84 287.73 19.62 39.66 15.94 29.07 13.7 22.66 12.17 18.34 11.03 15.2 10.16 12.82 9.45 10.96 8.9 9.47 8.42 8.25 8.04 7.24 7.72 6.4 7.45 5.65 7.23 5.03 7.06 4.5 6.92 3.98 6.8 3.56 6.74 3.17 6.68 2.82 6.66 2.48 6.66 2.16 6.7 1.87 6.74 1.58 6.83 1.32 6.94 1.02 7.08.75 7.26.44 5.66.12" stroke="#5e5e5e" stroke-width="2" fill="none"/><path d="M423.28-1472.8l-.04 2-4.03-.1.03-.93h3v-1" fill="#5e5e5e"/><path d="M1021.13-670.64l17.63-9.44-16.77-10.9" stroke="#5e5e5e" stroke-width="2" fill="none"/><path d="M1392.22-320c0 33.14-80.6 60-180 60s-180-26.86-180-60 80.6-60 180-60 180 26.86 180 60z" stroke="#5e5e5e" stroke-width="3" fill="#fff"/><g><use xlink:href="#A" transform="matrix(1,0,0,1,1032.2222222222222,-380) translate(100.45870370370372 66.5111111111111)"/><use xlink:href="#z" transform="matrix(1,0,0,1,1032.2222222222222,-380) translate(165.51487654320988 66.5111111111111)"/></g><path d="M423.23-1471.8l4 .07 4.9.3 4.84.52 4.78.7 4.75.9 4.74 1.1 4.73 1.34 4.76 1.54 4.8 1.78 4.83 2.04 4.92 2.32 5 2.62 5.14 2.96 5.27 3.35 5.43 3.78 5.64 4.28 5.87 4.88 6.15 5.53 6.46 6.35 6.84 7.3 7.3 8.45 7.8 9.87 8.45 11.63 9.2 13.88 10.16 16.8 11.34 20.64 12.88 26 14.98 33.74 18.08 45.83 23.43 67.6 37.53 125.66 114 409.9 23.43 67.6 18.1 45.85 14.97 33.75 12.87 26 11.34 20.65 10.15 16.78 9.2 13.88 8.44 11.64 7.82 9.87 7.28 8.45 6.85 7.3 6.45 6.33 6.15 5.54 5.87 4.85 5.64 4.28 5.45 3.8 5.27 3.34 5.13 2.96 5.02 2.62 4.9 2.32 4.86 2.03 4.8 1.8 4.74 1.53 4.74 1.32 4.74 1.1 4.75.92 4.77.7 4.84.52 4.92.3 3.18.06" stroke="#5e5e5e" stroke-width="2" fill="none"/><path d="M423.28-1472.8l-.04 2-4.03-.1.03-.93h3v-1" fill="#5e5e5e"/><path d="M1010.93-311.06l17.83-9.06-16.53-11.26" stroke="#5e5e5e" stroke-width="2" fill="none"/><defs><path fill="#333" d="M212-179c-10-28-35-45-73-45-59 0-87 40-87 99 0 60 29 101 89 101 43 0 62-24 78-52l27 14C228-24 195 4 139 4 59 4 22-46 18-125c-6-104 99-153 187-111 19 9 31 26 39 46" id="B"/><path fill="#333" d="M114-163C36-179 61-72 57 0H25l-1-190h30c1 12-1 29 2 39 6-27 23-49 58-41v29" id="C"/><path fill="#333" d="M141-36C126-15 110 5 73 4 37 3 15-17 15-53c-1-64 63-63 125-63 3-35-9-54-41-54-24 1-41 7-42 31l-33-3c5-37 33-52 76-52 45 0 72 20 72 64v82c-1 20 7 32 28 27v20c-31 9-61-2-59-35zM48-53c0 20 12 33 32 33 41-3 63-29 60-74-43 2-92-5-92 41" id="D"/><path fill="#333" d="M9 0v-24l116-142H16v-24h144v24L44-24h123V0H9" id="E"/><path fill="#333" d="M179-190L93 31C79 59 56 82 12 73V49c39 6 53-20 64-50L1-190h34L92-34l54-156h33" id="F"/><path fill="#333" d="M206 0h-36l-40-164L89 0H53L-1-190h32L70-26l43-164h34l41 164 42-164h31" id="G"/><path fill="#333" d="M24 0v-261h32V0H24" id="H"/><path fill="#333" d="M100-194c63 0 86 42 84 106H49c0 40 14 67 53 68 26 1 43-12 49-29l28 8c-11 28-37 45-77 45C44 4 14-33 15-96c1-61 26-98 85-98zm52 81c6-60-76-77-97-28-3 7-6 17-6 28h103" id="I"/><g id="a"><use transform="matrix(0.08641975308641973,0,0,0.08641975308641973,0,0)" xlink:href="#B"/><use transform="matrix(0.08641975308641973,0,0,0.08641975308641973,22.38271604938271,0)" xlink:href="#C"/><use transform="matrix(0.08641975308641973,0,0,0.08641975308641973,32.66666666666666,0)" xlink:href="#D"/><use transform="matrix(0.08641975308641973,0,0,0.08641975308641973,49.950617283950606,0)" xlink:href="#E"/><use transform="matrix(0.08641975308641973,0,0,0.08641975308641973,65.50617283950616,0)" xlink:href="#F"/><use transform="matrix(0.08641975308641973,0,0,0.08641975308641973,81.06172839506172,0)" xlink:href="#B"/><use transform="matrix(0.08641975308641973,0,0,0.08641975308641973,103.44444444444443,0)" xlink:href="#C"/><use transform="matrix(0.08641975308641973,0,0,0.08641975308641973,113.72839506172836,0)" xlink:href="#D"/><use transform="matrix(0.08641975308641973,0,0,0.08641975308641973,131.01234567901233,0)" xlink:href="#G"/><use transform="matrix(0.08641975308641973,0,0,0.08641975308641973,153.39506172839504,0)" xlink:href="#H"/><use transform="matrix(0.08641975308641973,0,0,0.08641975308641973,160.2222222222222,0)" xlink:href="#I"/><use transform="matrix(0.08641975308641973,0,0,0.08641975308641973,177.50617283950612,0)" xlink:href="#C"/></g><path d="M185-189c-5-48-123-54-124 2 14 75 158 14 163 119 3 78-121 87-175 55-17-10-28-26-33-46l33-7c5 56 141 63 141-1 0-78-155-14-162-118-5-82 145-84 179-34 5 7 8 16 11 25" id="J"/><path d="M24-231v-30h32v30H24zM24 0v-190h32V0H24" id="K"/><path d="M177-190C167-65 218 103 67 71c-23-6-38-20-44-43l32-5c15 47 100 32 89-28v-30C133-14 115 1 83 1 29 1 15-40 15-95c0-56 16-97 71-98 29-1 48 16 59 35 1-10 0-23 2-32h30zM94-22c36 0 50-32 50-73 0-42-14-75-50-75-39 0-46 34-46 75s6 73 46 73" id="L"/><path d="M117-194c89-4 53 116 60 194h-32v-121c0-31-8-49-39-48C34-167 62-67 57 0H25l-1-190h30c1 10-1 24 2 32 11-22 29-35 61-36" id="M"/><g id="b"><use transform="matrix(0.07469135802469135,0,0,0.07469135802469135,0,0)" xlink:href="#J"/><use transform="matrix(0.07469135802469135,0,0,0.07469135802469135,17.925925925925924,0)" xlink:href="#K"/><use transform="matrix(0.07469135802469135,0,0,0.07469135802469135,23.82654320987654,0)" xlink:href="#L"/><use transform="matrix(0.07469135802469135,0,0,0.07469135802469135,38.764814814814805,0)" xlink:href="#M"/></g><path d="M232-93c-1 65-40 97-104 97C67 4 28-28 28-90v-158h33c8 89-33 224 67 224 102 0 64-133 71-224h33v155" id="N"/><path d="M115-194c55 1 70 41 70 98S169 2 115 4C84 4 66-9 55-30l1 105H24l-1-265h31l2 30c10-21 28-34 59-34zm-8 174c40 0 45-34 45-75s-6-73-45-74c-42 0-51 32-51 76 0 43 10 73 51 73" id="O"/><g id="c"><use transform="matrix(0.07469135802469135,0,0,0.07469135802469135,0,0)" xlink:href="#N"/><use transform="matrix(0.07469135802469135,0,0,0.07469135802469135,19.34506172839506,0)" xlink:href="#O"/></g><path d="M30 0v-248h33v221h125V0H30" id="P"/><path d="M100-194c62-1 85 37 85 99 1 63-27 99-86 99S16-35 15-95c0-66 28-99 85-99zM99-20c44 1 53-31 53-75 0-43-8-75-51-75s-53 32-53 75 10 74 51 75" id="Q"/><g id="d"><use transform="matrix(0.07469135802469135,0,0,0.07469135802469135,0,0)" xlink:href="#P"/><use transform="matrix(0.07469135802469135,0,0,0.07469135802469135,14.938271604938269,0)" xlink:href="#Q"/><use transform="matrix(0.07469135802469135,0,0,0.07469135802469135,29.876543209876537,0)" xlink:href="#L"/></g><path d="M33 0v-248h34V0H33" id="R"/><g id="e"><use transform="matrix(0.07469135802469135,0,0,0.07469135802469135,0,0)" xlink:href="#R"/><use transform="matrix(0.07469135802469135,0,0,0.07469135802469135,7.469135802469134,0)" xlink:href="#M"/></g><path d="M84 4C-5 8 30-112 23-190h32v120c0 31 7 50 39 49 72-2 45-101 50-169h31l1 190h-30c-1-10 1-25-2-33-11 22-28 36-60 37" id="S"/><path d="M59-47c-2 24 18 29 38 22v24C64 9 27 4 27-40v-127H5v-23h24l9-43h21v43h35v23H59v120" id="T"/><g id="f"><use transform="matrix(0.07469135802469135,0,0,0.07469135802469135,0,0)" xlink:href="#P"/><use transform="matrix(0.07469135802469135,0,0,0.07469135802469135,14.938271604938269,0)" xlink:href="#Q"/><use transform="matrix(0.07469135802469135,0,0,0.07469135802469135,29.876543209876537,0)" xlink:href="#L"/><use transform="matrix(0.07469135802469135,0,0,0.07469135802469135,44.81481481481481,0)" xlink:href="#Q"/><use transform="matrix(0.07469135802469135,0,0,0.07469135802469135,59.753086419753075,0)" xlink:href="#S"/><use transform="matrix(0.07469135802469135,0,0,0.07469135802469135,74.69135802469134,0)" xlink:href="#T"/></g><path d="M233-177c-1 41-23 64-60 70L243 0h-38l-65-103H63V0H30v-248c88 3 205-21 203 71zM63-129c60-2 137 13 137-47 0-61-80-42-137-45v92" id="U"/><path d="M100-194c63 0 86 42 84 106H49c0 40 14 67 53 68 26 1 43-12 49-29l28 8c-11 28-37 45-77 45C44 4 14-33 15-96c1-61 26-98 85-98zm52 81c6-60-76-77-97-28-3 7-6 17-6 28h103" id="V"/><path d="M96-169c-40 0-48 33-48 73s9 75 48 75c24 0 41-14 43-38l32 2c-6 37-31 61-74 61-59 0-76-41-82-99-10-93 101-131 147-64 4 7 5 14 7 22l-32 3c-4-21-16-35-41-35" id="W"/><path d="M108 0H70L1-190h34L89-25l56-165h34" id="X"/><path d="M114-163C36-179 61-72 57 0H25l-1-190h30c1 12-1 29 2 39 6-27 23-49 58-41v29" id="Y"/><g id="g"><use transform="matrix(0.07469135802469135,0,0,0.07469135802469135,0,0)" xlink:href="#U"/><use transform="matrix(0.07469135802469135,0,0,0.07469135802469135,19.34506172839506,0)" xlink:href="#V"/><use transform="matrix(0.07469135802469135,0,0,0.07469135802469135,34.28333333333333,0)" xlink:href="#W"/><use transform="matrix(0.07469135802469135,0,0,0.07469135802469135,47.72777777777778,0)" xlink:href="#Q"/><use transform="matrix(0.07469135802469135,0,0,0.07469135802469135,62.66604938271604,0)" xlink:href="#X"/><use transform="matrix(0.07469135802469135,0,0,0.07469135802469135,76.11049382716048,0)" xlink:href="#V"/><use transform="matrix(0.07469135802469135,0,0,0.07469135802469135,91.04876543209875,0)" xlink:href="#Y"/></g><path d="M30-248c87 1 191-15 191 75 0 78-77 80-158 76V0H30v-248zm33 125c57 0 124 11 124-50 0-59-68-47-124-48v98" id="Z"/><path d="M141-36C126-15 110 5 73 4 37 3 15-17 15-53c-1-64 63-63 125-63 3-35-9-54-41-54-24 1-41 7-42 31l-33-3c5-37 33-52 76-52 45 0 72 20 72 64v82c-1 20 7 32 28 27v20c-31 9-61-2-59-35zM48-53c0 20 12 33 32 33 41-3 63-29 60-74-43 2-92-5-92 41" id="aa"/><path d="M135-143c-3-34-86-38-87 0 15 53 115 12 119 90S17 21 10-45l28-5c4 36 97 45 98 0-10-56-113-15-118-90-4-57 82-63 122-42 12 7 21 19 24 35" id="ab"/><path d="M206 0h-36l-40-164L89 0H53L-1-190h32L70-26l43-164h34l41 164 42-164h31" id="ac"/><path d="M85-194c31 0 48 13 60 33l-1-100h32l1 261h-30c-2-10 0-23-3-31C134-8 116 4 85 4 32 4 16-35 15-94c0-66 23-100 70-100zm9 24c-40 0-46 34-46 75 0 40 6 74 45 74 42 0 51-32 51-76 0-42-9-74-50-73" id="ad"/><g id="h"><use transform="matrix(0.07469135802469135,0,0,0.07469135802469135,0,0)" xlink:href="#Z"/><use transform="matrix(0.07469135802469135,0,0,0.07469135802469135,17.925925925925924,0)" xlink:href="#aa"/><use transform="matrix(0.07469135802469135,0,0,0.07469135802469135,32.86419753086419,0)" xlink:href="#ab"/><use transform="matrix(0.07469135802469135,0,0,0.07469135802469135,46.30864197530863,0)" xlink:href="#ab"/><use transform="matrix(0.07469135802469135,0,0,0.07469135802469135,59.753086419753075,0)" xlink:href="#ac"/><use transform="matrix(0.07469135802469135,0,0,0.07469135802469135,79.09814814814814,0)" xlink:href="#Q"/><use transform="matrix(0.07469135802469135,0,0,0.07469135802469135,94.0364197530864,0)" xlink:href="#Y"/><use transform="matrix(0.07469135802469135,0,0,0.07469135802469135,102.92469135802467,0)" xlink:href="#ad"/></g><path d="M137 0h-34L2-248h35l83 218 83-218h36" id="ae"/><g id="i"><use transform="matrix(0.07469135802469135,0,0,0.07469135802469135,0,0)" xlink:href="#ae"/><use transform="matrix(0.07469135802469135,0,0,0.07469135802469135,17.403086419753084,0)" xlink:href="#K"/><use transform="matrix(0.07469135802469135,0,0,0.07469135802469135,23.3037037037037,0)" xlink:href="#V"/><use transform="matrix(0.07469135802469135,0,0,0.07469135802469135,38.24197530864197,0)" xlink:href="#ac"/></g><g id="j"><use transform="matrix(0.07469135802469135,0,0,0.07469135802469135,0,0)" xlink:href="#N"/><use transform="matrix(0.07469135802469135,0,0,0.07469135802469135,19.34506172839506,0)" xlink:href="#ab"/><use transform="matrix(0.07469135802469135,0,0,0.07469135802469135,32.7895061728395,0)" xlink:href="#V"/><use transform="matrix(0.07469135802469135,0,0,0.07469135802469135,47.72777777777778,0)" xlink:href="#Y"/></g><path d="M101-234c-31-9-42 10-38 44h38v23H63V0H32v-167H5v-23h27c-7-52 17-82 69-68v24" id="af"/><path d="M24 0v-261h32V0H24" id="ag"/><g id="k"><use transform="matrix(0.07469135802469135,0,0,0.07469135802469135,0,0)" xlink:href="#Z"/><use transform="matrix(0.07469135802469135,0,0,0.07469135802469135,17.925925925925924,0)" xlink:href="#Y"/><use transform="matrix(0.07469135802469135,0,0,0.07469135802469135,26.81419753086419,0)" xlink:href="#Q"/><use transform="matrix(0.07469135802469135,0,0,0.07469135802469135,41.75246913580246,0)" xlink:href="#af"/><use transform="matrix(0.07469135802469135,0,0,0.07469135802469135,49.22160493827159,0)" xlink:href="#K"/><use transform="matrix(0.07469135802469135,0,0,0.07469135802469135,55.122222222222206,0)" xlink:href="#ag"/><use transform="matrix(0.07469135802469135,0,0,0.07469135802469135,61.02283950617282,0)" xlink:href="#V"/></g><path d="M30-248c118-7 216 8 213 122C240-48 200 0 122 0H30v-248zM63-27c89 8 146-16 146-99s-60-101-146-95v194" id="ah"/><path d="M106-169C34-169 62-67 57 0H25v-261h32l-1 103c12-21 28-36 61-36 89 0 53 116 60 194h-32v-121c2-32-8-49-39-48" id="ai"/><path d="M115-194c53 0 69 39 70 98 0 66-23 100-70 100C84 3 66-7 56-30L54 0H23l1-261h32v101c10-23 28-34 59-34zm-8 174c40 0 45-34 45-75 0-40-5-75-45-74-42 0-51 32-51 76 0 43 10 73 51 73" id="aj"/><g id="l"><use transform="matrix(0.07469135802469135,0,0,0.07469135802469135,0,0)" xlink:href="#ah"/><use transform="matrix(0.07469135802469135,0,0,0.07469135802469135,19.34506172839506,0)" xlink:href="#aa"/><use transform="matrix(0.07469135802469135,0,0,0.07469135802469135,34.28333333333333,0)" xlink:href="#ab"/><use transform="matrix(0.07469135802469135,0,0,0.07469135802469135,47.72777777777778,0)" xlink:href="#ai"/><use transform="matrix(0.07469135802469135,0,0,0.07469135802469135,62.66604938271604,0)" xlink:href="#aj"/><use transform="matrix(0.07469135802469135,0,0,0.07469135802469135,77.6043209876543,0)" xlink:href="#Q"/><use transform="matrix(0.07469135802469135,0,0,0.07469135802469135,92.54259259259258,0)" xlink:href="#aa"/><use transform="matrix(0.07469135802469135,0,0,0.07469135802469135,107.48086419753083,0)" xlink:href="#Y"/><use transform="matrix(0.07469135802469135,0,0,0.07469135802469135,116.3691358024691,0)" xlink:href="#ad"/></g><path fill="#333" d="M232-93c-1 65-40 97-104 97C67 4 28-28 28-90v-158h33c8 89-33 224 67 224 102 0 64-133 71-224h33v155" id="ak"/><path fill="#333" d="M135-143c-3-34-86-38-87 0 15 53 115 12 119 90S17 21 10-45l28-5c4 36 97 45 98 0-10-56-113-15-118-90-4-57 82-63 122-42 12 7 21 19 24 35" id="al"/><g id="m"><use transform="matrix(0.06172839506172839,0,0,0.06172839506172839,0,0)" xlink:href="#ak"/><use transform="matrix(0.06172839506172839,0,0,0.06172839506172839,15.987654320987653,0)" xlink:href="#al"/><use transform="matrix(0.06172839506172839,0,0,0.06172839506172839,27.098765432098766,0)" xlink:href="#I"/><use transform="matrix(0.06172839506172839,0,0,0.06172839506172839,39.44444444444444,0)" xlink:href="#C"/></g><g id="n"><use transform="matrix(0.07469135802469135,0,0,0.07469135802469135,0,0)" xlink:href="#J"/><use transform="matrix(0.07469135802469135,0,0,0.07469135802469135,17.925925925925924,0)" xlink:href="#aa"/><use transform="matrix(0.07469135802469135,0,0,0.07469135802469135,32.86419753086419,0)" xlink:href="#X"/><use transform="matrix(0.07469135802469135,0,0,0.07469135802469135,46.30864197530863,0)" xlink:href="#V"/><use transform="matrix(0.07469135802469135,0,0,0.07469135802469135,61.2469135802469,0)" xlink:href="#ad"/></g><path d="M212-179c-10-28-35-45-73-45-59 0-87 40-87 99 0 60 29 101 89 101 43 0 62-24 78-52l27 14C228-24 195 4 139 4 59 4 22-46 18-125c-6-104 99-153 187-111 19 9 31 26 39 46" id="am"/><g id="o"><use transform="matrix(0.07469135802469135,0,0,0.07469135802469135,0,0)" xlink:href="#am"/><use transform="matrix(0.07469135802469135,0,0,0.07469135802469135,19.34506172839506,0)" xlink:href="#ag"/><use transform="matrix(0.07469135802469135,0,0,0.07469135802469135,25.245679012345676,0)" xlink:href="#S"/><use transform="matrix(0.07469135802469135,0,0,0.07469135802469135,40.18395061728394,0)" xlink:href="#ab"/><use transform="matrix(0.07469135802469135,0,0,0.07469135802469135,53.62839506172838,0)" xlink:href="#T"/><use transform="matrix(0.07469135802469135,0,0,0.07469135802469135,61.09753086419751,0)" xlink:href="#V"/><use transform="matrix(0.07469135802469135,0,0,0.07469135802469135,76.03580246913579,0)" xlink:href="#Y"/><use transform="matrix(0.07469135802469135,0,0,0.07469135802469135,84.92407407407406,0)" xlink:href="#ab"/></g><g id="p"><use transform="matrix(0.07469135802469135,0,0,0.07469135802469135,0,0)" xlink:href="#J"/><use transform="matrix(0.07469135802469135,0,0,0.07469135802469135,17.925925925925924,0)" xlink:href="#V"/><use transform="matrix(0.07469135802469135,0,0,0.07469135802469135,32.86419753086419,0)" xlink:href="#aa"/><use transform="matrix(0.07469135802469135,0,0,0.07469135802469135,47.802469135802454,0)" xlink:href="#Y"/><use transform="matrix(0.07469135802469135,0,0,0.07469135802469135,56.69074074074072,0)" xlink:href="#W"/><use transform="matrix(0.07469135802469135,0,0,0.07469135802469135,70.13518518518516,0)" xlink:href="#ai"/></g><g id="q"><use transform="matrix(0.07469135802469135,0,0,0.07469135802469135,0,0)" xlink:href="#am"/><use transform="matrix(0.07469135802469135,0,0,0.07469135802469135,19.34506172839506,0)" xlink:href="#Q"/><use transform="matrix(0.07469135802469135,0,0,0.07469135802469135,34.28333333333333,0)" xlink:href="#M"/><use transform="matrix(0.07469135802469135,0,0,0.07469135802469135,49.2216049382716,0)" xlink:href="#T"/><use transform="matrix(0.07469135802469135,0,0,0.07469135802469135,56.69074074074073,0)" xlink:href="#V"/><use transform="matrix(0.07469135802469135,0,0,0.07469135802469135,71.629012345679,0)" xlink:href="#M"/><use transform="matrix(0.07469135802469135,0,0,0.07469135802469135,86.56728395061727,0)" xlink:href="#T"/></g><path d="M240 0l2-218c-23 76-54 145-80 218h-23L58-218 59 0H30v-248h44l77 211c21-75 51-140 76-211h43V0h-30" id="an"/><path d="M143 0L79-87 56-68V0H24v-261h32v163l83-92h37l-77 82L181 0h-38" id="ao"/><g id="r"><use transform="matrix(0.07469135802469135,0,0,0.07469135802469135,0,0)" xlink:href="#an"/><use transform="matrix(0.07469135802469135,0,0,0.07469135802469135,22.33271604938271,0)" xlink:href="#aa"/><use transform="matrix(0.07469135802469135,0,0,0.07469135802469135,37.270987654320976,0)" xlink:href="#ao"/><use transform="matrix(0.07469135802469135,0,0,0.07469135802469135,50.71543209876541,0)" xlink:href="#V"/></g><g id="s"><use transform="matrix(0.07469135802469135,0,0,0.07469135802469135,0,0)" xlink:href="#am"/><use transform="matrix(0.07469135802469135,0,0,0.07469135802469135,19.34506172839506,0)" xlink:href="#ag"/><use transform="matrix(0.07469135802469135,0,0,0.07469135802469135,25.245679012345676,0)" xlink:href="#S"/><use transform="matrix(0.07469135802469135,0,0,0.07469135802469135,40.18395061728394,0)" xlink:href="#ab"/><use transform="matrix(0.07469135802469135,0,0,0.07469135802469135,53.62839506172838,0)" xlink:href="#T"/><use transform="matrix(0.07469135802469135,0,0,0.07469135802469135,61.09753086419751,0)" xlink:href="#V"/><use transform="matrix(0.07469135802469135,0,0,0.07469135802469135,76.03580246913579,0)" xlink:href="#Y"/><use transform="matrix(0.07469135802469135,0,0,0.07469135802469135,84.92407407407406,0)" xlink:href="#ab"/></g><path d="M63-220v92h138v28H63V0H30v-248h175v28H63" id="ap"/><path d="M210-169c-67 3-38 105-44 169h-31v-121c0-29-5-50-35-48C34-165 62-65 56 0H25l-1-190h30c1 10-1 24 2 32 10-44 99-50 107 0 11-21 27-35 58-36 85-2 47 119 55 194h-31v-121c0-29-5-49-35-48" id="aq"/><g id="t"><use transform="matrix(0.07469135802469135,0,0,0.07469135802469135,0,0)" xlink:href="#ap"/><use transform="matrix(0.07469135802469135,0,0,0.07469135802469135,16.357407407407404,0)" xlink:href="#Y"/><use transform="matrix(0.07469135802469135,0,0,0.07469135802469135,25.245679012345676,0)" xlink:href="#Q"/><use transform="matrix(0.07469135802469135,0,0,0.07469135802469135,40.18395061728394,0)" xlink:href="#aq"/></g><g id="u"><use transform="matrix(0.07469135802469135,0,0,0.07469135802469135,0,0)" xlink:href="#J"/><use transform="matrix(0.07469135802469135,0,0,0.07469135802469135,17.925925925925924,0)" xlink:href="#V"/><use transform="matrix(0.07469135802469135,0,0,0.07469135802469135,32.86419753086419,0)" xlink:href="#aa"/><use transform="matrix(0.07469135802469135,0,0,0.07469135802469135,47.802469135802454,0)" xlink:href="#Y"/><use transform="matrix(0.07469135802469135,0,0,0.07469135802469135,56.69074074074072,0)" xlink:href="#W"/><use transform="matrix(0.07469135802469135,0,0,0.07469135802469135,70.13518518518516,0)" xlink:href="#ai"/></g><g id="v"><use transform="matrix(0.07469135802469135,0,0,0.07469135802469135,0,0)" xlink:href="#U"/><use transform="matrix(0.07469135802469135,0,0,0.07469135802469135,19.34506172839506,0)" xlink:href="#V"/><use transform="matrix(0.07469135802469135,0,0,0.07469135802469135,34.28333333333333,0)" xlink:href="#ab"/><use transform="matrix(0.07469135802469135,0,0,0.07469135802469135,47.72777777777778,0)" xlink:href="#S"/><use transform="matrix(0.07469135802469135,0,0,0.07469135802469135,62.66604938271604,0)" xlink:href="#ag"/><use transform="matrix(0.07469135802469135,0,0,0.07469135802469135,68.56666666666666,0)" xlink:href="#T"/><use transform="matrix(0.07469135802469135,0,0,0.07469135802469135,76.0358024691358,0)" xlink:href="#ab"/></g><path d="M266 0h-40l-56-210L115 0H75L2-248h35L96-30l15-64 43-154h32l59 218 59-218h35" id="ar"/><g id="w"><use transform="matrix(0.07469135802469135,0,0,0.07469135802469135,0,0)" xlink:href="#ar"/><use transform="matrix(0.07469135802469135,0,0,0.07469135802469135,25.320370370370366,0)" xlink:href="#K"/><use transform="matrix(0.07469135802469135,0,0,0.07469135802469135,31.220987654320982,0)" xlink:href="#T"/><use transform="matrix(0.07469135802469135,0,0,0.07469135802469135,38.69012345679012,0)" xlink:href="#ai"/><use transform="matrix(0.07469135802469135,0,0,0.07469135802469135,53.62839506172838,0)" xlink:href="#K"/><use transform="matrix(0.07469135802469135,0,0,0.07469135802469135,59.529012345679,0)" xlink:href="#M"/></g><path d="M30 0v-248h187v28H63v79h144v27H63v87h162V0H30" id="as"/><g id="x"><use transform="matrix(0.07469135802469135,0,0,0.07469135802469135,0,0)" xlink:href="#as"/><use transform="matrix(0.07469135802469135,0,0,0.07469135802469135,17.925925925925924,0)" xlink:href="#ad"/><use transform="matrix(0.07469135802469135,0,0,0.07469135802469135,32.86419753086419,0)" xlink:href="#K"/><use transform="matrix(0.07469135802469135,0,0,0.07469135802469135,38.764814814814805,0)" xlink:href="#T"/></g><g id="y"><use transform="matrix(0.07469135802469135,0,0,0.07469135802469135,0,0)" xlink:href="#ah"/><use transform="matrix(0.07469135802469135,0,0,0.07469135802469135,19.34506172839506,0)" xlink:href="#Q"/><use transform="matrix(0.07469135802469135,0,0,0.07469135802469135,34.28333333333333,0)" xlink:href="#ac"/><use transform="matrix(0.07469135802469135,0,0,0.07469135802469135,53.6283950617284,0)" xlink:href="#M"/><use transform="matrix(0.07469135802469135,0,0,0.07469135802469135,68.56666666666666,0)" xlink:href="#ag"/><use transform="matrix(0.07469135802469135,0,0,0.07469135802469135,74.46728395061729,0)" xlink:href="#Q"/><use transform="matrix(0.07469135802469135,0,0,0.07469135802469135,89.40555555555555,0)" xlink:href="#aa"/><use transform="matrix(0.07469135802469135,0,0,0.07469135802469135,104.34382716049382,0)" xlink:href="#ad"/></g><g id="z"><use transform="matrix(0.07469135802469135,0,0,0.07469135802469135,0,0)" xlink:href="#am"/><use transform="matrix(0.07469135802469135,0,0,0.07469135802469135,19.34506172839506,0)" xlink:href="#Q"/><use transform="matrix(0.07469135802469135,0,0,0.07469135802469135,34.28333333333333,0)" xlink:href="#M"/><use transform="matrix(0.07469135802469135,0,0,0.07469135802469135,49.2216049382716,0)" xlink:href="#T"/><use transform="matrix(0.07469135802469135,0,0,0.07469135802469135,56.69074074074073,0)" xlink:href="#V"/><use transform="matrix(0.07469135802469135,0,0,0.07469135802469135,71.629012345679,0)" xlink:href="#M"/><use transform="matrix(0.07469135802469135,0,0,0.07469135802469135,86.56728395061727,0)" xlink:href="#T"/></g><g id="A"><use transform="matrix(0.07469135802469135,0,0,0.07469135802469135,0,0)" xlink:href="#ae"/><use transform="matrix(0.07469135802469135,0,0,0.07469135802469135,17.403086419753084,0)" xlink:href="#K"/><use transform="matrix(0.07469135802469135,0,0,0.07469135802469135,23.3037037037037,0)" xlink:href="#V"/><use transform="matrix(0.07469135802469135,0,0,0.07469135802469135,38.24197530864197,0)" xlink:href="#ac"/></g></defs></g></svg>